<?xml version="1.0" encoding="utf-8"?>
<!-- Generator: Adobe Illustrator 22.0.0, SVG Export Plug-In . SVG Version: 6.00 Build 0)  -->
<svg version="1.1" id="Layer_1" xmlns="http://www.w3.org/2000/svg" xmlns:xlink="http://www.w3.org/1999/xlink" x="0px" y="0px"
	 viewBox="0 0 5125 1920" style="enable-background:new 0 0 5125 1920;" xml:space="preserve">
<style type="text/css">
	.st0{fill:none;}
	.st1{fill:#FFFFFF;}
	.st2{fill:url(#SVGID_1_);}
	.st3{fill:url(#SVGID_2_);}
	.st4{fill:url(#SVGID_3_);}
	.st5{fill:url(#SVGID_4_);}
	.st6{fill:url(#SVGID_5_);}
	.st7{fill:url(#SVGID_6_);}
	.st8{fill:url(#SVGID_7_);}
	.st9{fill:url(#SVGID_8_);}
	.st10{fill:url(#SVGID_9_);}
	.st11{fill:#F98E3D;}
	.st12{fill:url(#SVGID_10_);}
	.st13{fill:url(#SVGID_11_);}
	.st14{fill:url(#SVGID_12_);}
	.st15{fill:url(#SVGID_13_);}
	.st16{fill:url(#SVGID_14_);}
	.st17{fill:url(#SVGID_15_);}
	.st18{fill:url(#SVGID_16_);}
	.st19{fill:url(#SVGID_17_);}
	.st20{fill:url(#SVGID_18_);}
	.st21{fill:url(#SVGID_19_);}
	.st22{fill:url(#SVGID_20_);}
	.st23{fill:url(#SVGID_21_);}
	.st24{fill:url(#SVGID_22_);}
	.st25{fill:url(#SVGID_23_);}
</style>
<title>logo</title>
<desc>Created with Sketch.</desc>
<g>
	<path class="st0" d="M2703.1,1120.9c-4.8-0.1-9.6,0.7-14.2,2.2v92.5c2.7,0.9,5.8,0.9,9.3,0.9c29.4,0,42.7-20.9,42.7-48.9
		C2740.9,1141.3,2730.2,1120.9,2703.1,1120.9z"/>
	<path class="st0" d="M4522.6,856.6c0-51.7-32.8-88.2-85-88.2c-8-0.1-16,0.6-23.9,1.9l0,176.4c8.2,1.9,15.1,1.9,23.3,1.9
		C4491.1,948.6,4522.6,909.5,4522.6,856.6z"/>
	<path class="st0" d="M2904.5,1241.4h-12.4v89.8c3.5,0.9,7.5,0.9,12.9,0.9c23.6,0,43.1-14.2,43.1-44.9
		C2948.1,1257.4,2927.7,1241.9,2904.5,1241.4z"/>
	<path class="st0" d="M2602,778.5h-21.4v168.8c8.1,1.7,16.3,2.6,24.6,2.5c50.4,0,83.1-29.6,83.1-84.4
		C2688.2,806.9,2647.3,779.2,2602,778.5z"/>
	<path class="st0" d="M3640,1130.3h-1.3c-3.1,20-7.5,51.2-10.7,68.5l-11.1,62.3l42.7,0l-9.8-62.7
		C3646.6,1180,3642.6,1150.3,3640,1130.3z"/>
	<path class="st0" d="M2941.5,1156c0-21.8-10.2-38.7-34.2-38.7c-6.2,0-11.6,0.5-15.1,1.8v79.1h12.4
		C2925.4,1198.3,2941.5,1180.5,2941.5,1156z"/>
	<path class="st0" d="M4977.4,614.7h-2.5c-5,32.1-11.4,68.7-17,97l-22,107.7h80.6l-22.1-107.7
		C4988.1,681.5,4982.4,646.2,4977.4,614.7z"/>
	<path class="st0" d="M3148.7,947.9c54.8,0,69.3-92.6,69.3-175.7c0-79.4-14.5-173.2-69.9-173.2c-52.9,0-69.9,88.2-69.9,174.5h0
		C3078.2,861,3095.2,947.9,3148.7,947.9z"/>
	<path class="st0" d="M5030,1130.3h-1.3c-3.1,20-7.6,51.2-10.7,68.5l-11.1,62.3l42.7,0l-9.8-62.7
		C5036.6,1180,5032.6,1150.3,5030,1130.3z"/>
	<path class="st0" d="M2861.5,772.9c47.9,0,80-31.5,80-91.3c0-43.5-18.3-82.5-71.8-82.5c-11.3,0-20.8,1.3-27.1,3.1V771
		C2848.8,772.4,2855.1,773,2861.5,772.9z"/>
	<path class="st0" d="M2602.6,741.3c39.7,0,73.7-30.2,73.7-75c0-39-18.3-69.3-69.9-69.3c-11.3,0-20.2,1.3-25.8,3.2l0.1,141.1H2602.6
		z"/>
	<path class="st0" d="M4815.2,1232.1c-4.5,0-9,0.4-13.4,1.3l0,96c4,0.9,8,0.9,12.9,0.9c13.8,0,24.9-5.3,32-14.2
		c7.5-8.9,11.1-21.3,11.1-34.7c0-13.8-4-26.2-11.6-34.7C4838.8,1237.9,4828.1,1232.1,4815.2,1232.1z"/>
	<polygon class="st1" points="1365,1319.4 1365,1514 1391.9,1487.1 1391.9,1345.2 	"/>
	<polygon class="st1" points="1063.6,1029.9 1063.6,1815.4 1127.7,1751.3 1127.7,1091.5 	"/>
	<polygon class="st1" points="1211,1171.4 1211,1668 1263.1,1615.9 1263.1,1221.5 	"/>
	<polygon class="st1" points="648.2,1480.3 752,1380.6 752,837.1 648.3,936.8 	"/>
	<polygon class="st1" points="1494.5,899.6 1494.5,1384.5 1511.2,1367.8 1511.2,915.8 	"/>
	<polygon class="st1" points="631.3,1497.2 631.3,1590.7 735.1,1694.4 735.1,1397.5 	"/>
	<polygon class="st1" points="912,884.2 912,1871.4 959.8,1919.2 1033.6,1845.4 1033.6,1001.1 	"/>
	<polygon class="st1" points="795.6,1339.4 795.6,1754.9 853.6,1812.9 853.6,1283.7 	"/>
	<polygon class="st1" points="1919.4,959.6 1308,348.2 1919.4,959.6 	"/>
	<polygon class="st1" points="1194.1,1154.5 1246.1,1204.6 1246.1,661.1 1194.1,611 	"/>
	<polygon class="st1" points="1348.1,1302.5 1374.9,1328.3 1374.9,784.8 1348.1,759 	"/>
	<polygon class="st1" points="812.5,1322.5 870.5,1266.8 870.5,723.3 812.5,779 	"/>
	<polygon class="st1" points="895.1,867.2 1016.7,984.2 1016.7,440.7 895.1,323.8 	"/>
	<polygon class="st1" points="1046.6,1012.9 1110.8,1074.5 1110.8,531.1 1046.6,469.4 	"/>
	
		<linearGradient id="SVGID_1_" gradientUnits="userSpaceOnUse" x1="2433.7314" y1="1029.2932" x2="2434.7314" y2="1029.2932" gradientTransform="matrix(1919.6 0 0 -1871.84 -4671791 1928382)">
		<stop  offset="0" style="stop-color:#51B4E7"/>
		<stop  offset="1" style="stop-color:#4A528B"/>
	</linearGradient>
	<polygon class="st2" points="1127.7,1751.7 1211,1668.4 1211,1668 1127.7,1751.3 	"/>
	
		<linearGradient id="SVGID_2_" gradientUnits="userSpaceOnUse" x1="2433.7314" y1="1029.2852" x2="2434.7314" y2="1029.2852" gradientTransform="matrix(1919.6 0 0 -1871.84 -4671791 1928382)">
		<stop  offset="0" style="stop-color:#51B4E7"/>
		<stop  offset="1" style="stop-color:#4A528B"/>
	</linearGradient>
	<polygon class="st3" points="735.1,1694.9 795.6,1755.4 795.6,1754.9 735.1,1694.4 	"/>
	
		<linearGradient id="SVGID_3_" gradientUnits="userSpaceOnUse" x1="2433.7314" y1="1029.2288" x2="2434.7314" y2="1029.2288" gradientTransform="matrix(1919.6 0 0 -1871.84 -4671791 1928382)">
		<stop  offset="0" style="stop-color:#51B4E7"/>
		<stop  offset="1" style="stop-color:#4A528B"/>
	</linearGradient>
	<polygon class="st4" points="1033.6,1845.8 1063.6,1815.9 1063.6,1815.4 1033.6,1845.4 	"/>
	
		<linearGradient id="SVGID_4_" gradientUnits="userSpaceOnUse" x1="2433.7314" y1="1029.7816" x2="2434.7314" y2="1029.7816" gradientTransform="matrix(1919.6 0 0 -1871.84 -4671791 1928382)">
		<stop  offset="0" style="stop-color:#51B4E7"/>
		<stop  offset="1" style="stop-color:#4A528B"/>
	</linearGradient>
	<polygon class="st5" points="959.8,0 1308,348.2 959.8,0 0,959.8 631.3,1591.1 631.3,1590.7 0.2,959.6 	"/>
	
		<linearGradient id="SVGID_5_" gradientUnits="userSpaceOnUse" x1="2433.7314" y1="1029.2224" x2="2434.7314" y2="1029.2224" gradientTransform="matrix(1919.6 0 0 -1871.84 -4671791 1928382)">
		<stop  offset="0" style="stop-color:#51B4E7"/>
		<stop  offset="1" style="stop-color:#4A528B"/>
	</linearGradient>
	<polygon class="st6" points="853.6,1813.4 912,1871.8 912,1871.4 853.6,1812.9 	"/>
	
		<linearGradient id="SVGID_6_" gradientUnits="userSpaceOnUse" x1="2433.7314" y1="1029.5848" x2="2434.7314" y2="1029.5848" gradientTransform="matrix(1919.6 0 0 -1871.84 -4671791 1928382)">
		<stop  offset="0" style="stop-color:#51B4E7"/>
		<stop  offset="1" style="stop-color:#4A528B"/>
	</linearGradient>
	<polygon class="st7" points="1511.2,1367.8 1511.2,1368.2 1919.6,959.8 1919.4,959.6 	"/>
	
		<linearGradient id="SVGID_7_" gradientUnits="userSpaceOnUse" x1="2433.7314" y1="1029.4395" x2="2434.7314" y2="1029.4395" gradientTransform="matrix(1919.6 0 0 -1871.84 -4671791 1928382)">
		<stop  offset="0" style="stop-color:#51B4E7"/>
		<stop  offset="1" style="stop-color:#4A528B"/>
	</linearGradient>
	<polygon class="st8" points="1391.9,1487.5 1494.5,1384.9 1494.5,1384.5 1391.9,1487.1 	"/>
	
		<linearGradient id="SVGID_8_" gradientUnits="userSpaceOnUse" x1="2433.7314" y1="1029.3705" x2="2434.7314" y2="1029.3705" gradientTransform="matrix(1919.6 0 0 -1871.84 -4671791 1928382)">
		<stop  offset="0" style="stop-color:#51B4E7"/>
		<stop  offset="1" style="stop-color:#4A528B"/>
	</linearGradient>
	<polygon class="st9" points="1263.1,1616.3 1365,1514.4 1365,1514 1263.1,1615.9 	"/>
	<path class="st1" d="M1308,348.2L959.8,0L0.2,959.6l631.1,631.1v-93.5l103.8-99.7v296.9l60.5,60.5v-415.5l58-55.7v529.2l58.4,58.4
		V884.2l121.6,116.9v844.3l30-29.9v-785.6l64.1,61.6v659.8l83.3-83.3v-496.6l52.1,50.1v394.4L1365,1514v-194.6l26.9,25.8v141.9
		l102.6-102.6V899.6l16.8,16.2v452l408.2-408.2L1308,348.2z M752,1380.6l-103.8,99.7l0-543.5L752,837.1V1380.6z M870.5,1266.8
		l-58,55.8V779l58-55.7V1266.8z M1016.7,984.2L895.1,867.2V323.8l121.6,116.9V984.2z M1110.8,1074.5l-64.2-61.6V469.4l64.2,61.6
		V1074.5z M1246.1,1204.6l-52.1-50.1V611l52.1,50.1V1204.6z M1374.9,1328.3l-26.9-25.8V759l26.9,25.8V1328.3z"/>
	
		<linearGradient id="SVGID_9_" gradientUnits="userSpaceOnUse" x1="2433.7317" y1="1029.7068" x2="2434.7314" y2="1029.7068" gradientTransform="matrix(1919.6 0 0 -1871.84 -4671791 1928382)">
		<stop  offset="0" style="stop-color:#51B4E7"/>
		<stop  offset="1" style="stop-color:#4A528B"/>
	</linearGradient>
	<path class="st10" d="M1308,348.2L959.8,0L0.2,959.6l631.1,631.1v-93.5l103.8-99.7v296.9l60.5,60.5v-415.5l58-55.7v529.2l58.4,58.4
		V884.2l121.6,116.9v844.3l30-29.9v-785.6l64.1,61.6v659.8l83.3-83.3v-496.6l52.1,50.1v394.4L1365,1514v-194.6l26.9,25.8v141.9
		l102.6-102.6V899.6l16.8,16.2v452l408.2-408.2L1308,348.2z M752,1380.6l-103.8,99.7l0-543.5L752,837.1V1380.6z M870.5,1266.8
		l-58,55.8V779l58-55.7V1266.8z M1016.7,984.2L895.1,867.2V323.8l121.6,116.9V984.2z M1110.8,1074.5l-64.2-61.6V469.4l64.2,61.6
		V1074.5z M1246.1,1204.6l-52.1-50.1V611l52.1,50.1V1204.6z M1374.9,1328.3l-26.9-25.8V759l26.9,25.8V1328.3z"/>
	<polygon class="st11" points="2478.5,943.5 2357.6,943.5 2357.6,784.2 2464,784.2 2464,743.2 2357.6,743.2 2357.6,603.4 
		2470.9,603.4 2470.9,561.2 2309.1,561.2 2309.1,985.7 2478.5,985.7 	"/>
	<path class="st11" d="M2707.8,949.8c18.9-20.8,30.2-49.1,30.2-84.4c0-55.4-29.6-95.1-78.7-108.3v-1.3c41.6-16.4,65.5-51,65.5-94.5
		c0-30.2-9.5-55.4-27.7-72.4c-22.7-21.4-55.4-29.6-93.9-29.6c-27.1,0-51,3.2-71.2,8.2v416.3c13.2,2.5,32.1,4.4,63.6,4.4
		C2644.1,988.2,2683.8,976.9,2707.8,949.8z M2606.3,597.1c51.6,0,69.9,30.2,69.9,69.3c0,44.8-34,75-73.7,75h-22l-0.1-141.1
		C2586.2,598.3,2595,597.1,2606.3,597.1z M2605.1,949.9c-8.3,0.1-16.5-0.8-24.6-2.5V778.5h21.4c45.4,0.6,86.3,28.3,86.3,86.9
		C2688.2,920.3,2655.5,949.9,2605.1,949.9z"/>
	<path class="st11" d="M2842.6,811.9c6.9,0.6,13.2,0.6,21.4,0.6c37.8,0,76.8-15.8,100.1-47.2c16.4-21.4,25.8-47.9,25.8-86.9
		c0-36.5-10.7-67.4-31.5-87.5c-22.1-22.1-54.9-31.5-93.9-31.5c-27.7,0-51,3.2-70.5,8.2v418.2h48.5V811.9z M2842.6,602.2
		c6.3-1.9,15.8-3.1,27.1-3.1c53.5,0,71.8,39,71.8,82.5c0,59.8-32.1,91.3-80,91.3c-6.3,0.1-12.7-0.5-18.9-1.9V602.2z"/>
	<path class="st11" d="M3145.6,990.8c68,0,122.8-61.1,122.8-220.4c0-135.4-43.5-214.2-115.9-214.1c-74.3,0-124.7,76.2-124.7,216.7
		C3027.8,915.8,3075,990.8,3145.6,990.8z M3078.2,773.5c0-86.3,17-174.5,69.9-174.5c55.4,0,69.9,93.8,69.9,173.2
		c0,83.2-14.5,175.7-69.3,175.7C3095.2,947.9,3078.2,861,3078.2,773.5L3078.2,773.5z"/>
	<polygon class="st11" points="3326.4,985.7 3374.9,985.7 3374.9,603.4 3490.8,603.4 3490.8,985.7 3539.3,985.7 3539.3,561.2 
		3326.4,561.2 	"/>
	<polygon class="st11" points="3663.4,784.2 3769.8,784.2 3769.8,743.2 3663.4,743.2 3663.4,603.4 3776.8,603.4 3776.8,561.2 
		3614.9,561.2 3614.9,985.7 3784.3,985.7 3784.3,943.5 3663.4,943.5 	"/>
	<path class="st11" d="M3945.6,546.1c42.8,0,66.1-19.5,71.8-61.1h-35.9c-2.5,18.3-12,34.7-35.3,34.7c-25.2,0-32.8-17-35.9-34.7H3875
		C3878.8,526.6,3905.3,546.1,3945.6,546.1z"/>
	<path class="st11" d="M3963.2,781.1c16.4-42.8,35.9-89.5,51-142.4h1.3c-3.7,56.7-5,109.6-5,200.3v146.7h43.5V561.2h-45.3
		l-76.2,198.4c-17.6,46-40.3,102-54.8,148h-1.3c3.8-66.8,5.7-120.9,5.7-194.6V561.2h-44.1v424.6h46L3963.2,781.1z"/>
	<path class="st11" d="M4254.9,989.5c26.5,0,47.2-4.4,60.5-11.4l-7.6-40.9c-10.1,5-26.5,9.4-44.7,9.4c-51.6,0-99.5-42.8-99.5-172.6
		s52.9-173.8,98.3-173.8c22,0,32.8,4.4,42.8,8.8l10.7-40.9c-8.8-5.7-27.1-10.7-52.9-10.7c-66.8,0-149.9,53.5-149.9,221.1
		C4112.5,922.8,4171.7,989.5,4254.9,989.5z"/>
	<path class="st11" d="M4542.1,944.2c19.5-22.7,30.2-51.6,30.2-90.1c0-77.5-49.1-126-126.6-126c-10.7-0.1-21.5,0.5-32.1,1.9V561.2
		h-48.5v422.7c13.2,2.5,32.1,4.4,63,4.4C4479.1,988.3,4517.5,972.5,4542.1,944.2z M4413.6,770.3c7.9-1.3,15.9-2,23.9-1.9
		c52.2,0,85,36.5,85,88.2c0,52.9-31.5,92-85.7,92c-8.2,0-15.1,0-23.3-1.9L4413.6,770.3z"/>
	<path class="st11" d="M4782.7,985.7h49.1c-13.2-36.5-19.5-78.1-28.4-117.8c-10.7-51.6-27.7-96.4-80-107.7l103.9-199h-52.3
		l-90.7,192.7h-8.8V561.2h-47.9v424.5h47.9V789.8h7.6c50.4,0,64.9,39.1,75,90.1C4765.7,915.8,4772.7,958,4782.7,985.7z"/>
	<path class="st11" d="M5051.1,985.7h47.9l-94.5-424.5h-53.5l-97,424.5h46.6l28.4-127.2h93.9L5051.1,985.7z M4935.9,819.4l22-107.7
		c5.6-28.3,12-64.9,17-97h2.5c5,31.5,10.7,66.8,17,97l22.1,107.7H4935.9z"/>
	
		<linearGradient id="SVGID_10_" gradientUnits="userSpaceOnUse" x1="2419.9207" y1="1032.1431" x2="2420.9207" y2="1032.1431" gradientTransform="matrix(161.48 0 0 -305.0699 -388503.6562 316100.7812)">
		<stop  offset="0" style="stop-color:#3AB19F"/>
		<stop  offset="0" style="stop-color:#3C4870"/>
	</linearGradient>
	<path class="st12" d="M2389.7,1123.5c12.9,0,20.5,2.7,27.1,5.8l9.8-48.9c-5.8-4-20-8-40.5-8c-58.3,0-121,44-121,157
		c0,84.9,36.5,148.1,113,148.1c20.4,0,36.9-3.1,45.4-7.1l-5.8-48.9c-9.1,2.8-18.5,4.3-28,4.4c-35.6,0-62.7-28-62.7-99.6
		C2327,1152,2356.8,1123.5,2389.7,1123.5z"/>
	
		<linearGradient id="SVGID_11_" gradientUnits="userSpaceOnUse" x1="2417.5481" y1="1032.6949" x2="2417.5481" y2="1031.6949" gradientTransform="matrix(135.6401 0 0 -299.7301 -325393.2812 310604.8438)">
		<stop  offset="0" style="stop-color:#3C4870"/>
		<stop  offset="1" style="stop-color:#3C4870"/>
	</linearGradient>
	<polygon class="st13" points="2513.7,1243.2 2582.2,1243.2 2582.2,1194.7 2513.7,1194.7 2513.7,1125.8 2585.7,1125.8 
		2585.7,1075.1 2455.4,1075.1 2455.4,1374.8 2591.1,1374.8 2591.1,1324.1 2513.7,1324.1 	"/>
	
		<linearGradient id="SVGID_12_" gradientUnits="userSpaceOnUse" x1="2421.0137" y1="1032.6825" x2="2421.0137" y2="1031.6825" gradientTransform="matrix(168.0901 0 0 -301 -404233.7188 311911.1875)">
		<stop  offset="0" style="stop-color:#3C4870"/>
		<stop  offset="1" style="stop-color:#3C4870"/>
	</linearGradient>
	<path class="st14" d="M2772.9,1096.9c-19.6-18.2-46.7-23.1-81.4-23.1c-22.2,0-44.5,2.2-60.9,5.8v295.2h58.3v-111.6h11.6
		c24,0,54.2-8.9,72.9-28.5c15.6-16.9,25.3-39.5,25.3-72C2798.7,1137.3,2790.7,1112.4,2772.9,1096.9z M2698.2,1216.5
		c-3.6,0-6.7,0-9.3-0.9v-92.5c4.6-1.5,9.4-2.3,14.2-2.2c27.1,0,37.8,20.4,37.8,46.7C2740.9,1195.6,2727.6,1216.5,2698.2,1216.5z"/>
	
		<linearGradient id="SVGID_13_" gradientUnits="userSpaceOnUse" x1="2421.5667" y1="1032.6604" x2="2421.5667" y2="1031.6604" gradientTransform="matrix(174.76 0 0 -303.2692 -420271.8125 314247.8125)">
		<stop  offset="0" style="stop-color:#3C4870"/>
		<stop  offset="1" style="stop-color:#3C4870"/>
	</linearGradient>
	<path class="st15" d="M2955.2,1216.5v-1.8c29.8-12.9,43.6-38.7,43.6-65.4c0-20.9-6.7-40.9-22.7-54.3c-20.9-17.8-48-21.3-76-21.3
		c-25.4,0-48.5,1.8-66.3,5.8l0,294.4c18,2.2,36.1,3.2,54.2,3.1c50.3,0,80.5-10.7,98.3-30.2c14.2-14.7,22.2-33.8,22.2-58.7
		C3008.6,1255.2,2989.9,1226.3,2955.2,1216.5z M2892.1,1119.1c3.6-1.3,8.9-1.8,15.1-1.8c24,0,34.2,16.9,34.2,38.7
		c0,24.4-16,42.2-36.9,42.2h-12.4V1119.1z M2905,1332.2c-5.3,0-9.3,0-12.9-0.9v-89.8h12.4c23.1,0.4,43.6,16,43.6,45.8
		C2948.1,1317.9,2928.6,1332.2,2905,1332.2z"/>
	
		<linearGradient id="SVGID_14_" gradientUnits="userSpaceOnUse" x1="2393.7046" y1="1032.6949" x2="2393.7046" y2="1031.6949" gradientTransform="matrix(58.26 0 0 -299.7301 -136379.5312 310604.8438)">
		<stop  offset="0" style="stop-color:#3C4870"/>
		<stop  offset="1" style="stop-color:#3C4870"/>
	</linearGradient>
	<rect x="3048.6" y="1075.1" class="st16" width="58.3" height="299.7"/>
	
		<linearGradient id="SVGID_15_" gradientUnits="userSpaceOnUse" x1="2420.4199" y1="1032.6431" x2="2420.4199" y2="1031.6431" gradientTransform="matrix(161.4702 0 0 -305.0699 -387600.8125 316100.7812)">
		<stop  offset="0" style="stop-color:#3C4870"/>
		<stop  offset="1" style="stop-color:#3C4870"/>
	</linearGradient>
	<path class="st17" d="M3268.7,1123.5c12.9,0,20.4,2.7,27.1,5.8l9.8-48.9c-5.8-4-20-8-40.5-8c-58.3,0-121,44-121,157
		c0,84.9,36.5,148.1,113,148.1c20.5,0,36.9-3.1,45.4-7.1l-5.8-48.9c-9.1,2.8-18.5,4.3-28,4.4c-35.6,0-62.7-28-62.7-99.6
		C3206,1152,3235.8,1123.5,3268.7,1123.5z"/>
	
		<linearGradient id="SVGID_16_" gradientUnits="userSpaceOnUse" x1="2421.7764" y1="1032.6949" x2="2421.7764" y2="1031.6949" gradientTransform="matrix(177.4299 0 0 -299.7301 -426272.375 310604.8438)">
		<stop  offset="0" style="stop-color:#3C4870"/>
		<stop  offset="1" style="stop-color:#3C4870"/>
	</linearGradient>
	<polygon class="st18" points="3453.7,1195.2 3392.8,1195.2 3392.8,1075.1 3334.5,1075.1 3334.5,1374.8 3392.8,1374.8 
		3392.8,1249.4 3453.7,1249.4 3453.7,1374.8 3511.9,1374.8 3511.9,1075.1 3453.7,1075.1 	"/>
	
		<linearGradient id="SVGID_17_" gradientUnits="userSpaceOnUse" x1="2422.8833" y1="1032.6949" x2="2422.8833" y2="1031.6949" gradientTransform="matrix(193 0 0 -299.7301 -463978.75 310604.8438)">
		<stop  offset="0" style="stop-color:#3C4870"/>
		<stop  offset="1" style="stop-color:#3C4870"/>
	</linearGradient>
	<path class="st19" d="M3606.2,1075.1l-64.9,299.7h56.5l13.3-68.5h53.8l12.9,68.5h56.5l-58.3-299.7H3606.2z M3616.9,1261l11.1-62.3
		c3.1-17.3,7.6-48.5,10.7-68.5h1.3c2.7,20,6.7,49.8,9.8,68l9.8,62.7L3616.9,1261z"/>
	
		<linearGradient id="SVGID_18_" gradientUnits="userSpaceOnUse" x1="2420.4189" y1="1032.6431" x2="2420.4189" y2="1031.6431" gradientTransform="matrix(161.46 0 0 -305.0699 -386896.9062 316100.7812)">
		<stop  offset="0" style="stop-color:#3C4870"/>
		<stop  offset="1" style="stop-color:#3C4870"/>
	</linearGradient>
	<path class="st20" d="M3947.7,1123.5c12.9,0,20.5,2.7,27.1,5.8l9.8-48.9c-5.8-4-20-8-40.5-8c-58.3,0-121,44-121,157
		c0,84.9,36.5,148.1,113,148.1c20.5,0,36.9-3.1,45.4-7.1l-5.8-48.9c-9.1,2.8-18.5,4.3-28,4.4c-35.6,0-62.7-28-62.7-99.6
		C3885,1152,3914.8,1123.5,3947.7,1123.5z"/>
	
		<linearGradient id="SVGID_19_" gradientUnits="userSpaceOnUse" x1="2423.1665" y1="1032.6598" x2="2423.1665" y2="1031.6598" gradientTransform="matrix(197.4302 0 0 -303.3301 -474312.6562 314311.8438)">
		<stop  offset="0" style="stop-color:#3C4870"/>
		<stop  offset="1" style="stop-color:#3C4870"/>
	</linearGradient>
	<path class="st21" d="M4036.2,1210.3c0,58.3-4,90.3-21.3,108.1c-5.3,5.3-12.9,8.9-20,10.7l12.5,49.4c14.6,0,28.9-5.8,40-14.7
		c37.8-29.4,42.2-89.8,42.2-158.8v-79.2h44.5v249h58.2v-299.7h-156.1V1210.3z"/>
	
		<linearGradient id="SVGID_20_" gradientUnits="userSpaceOnUse" x1="2422.5264" y1="1032.66" x2="2422.5264" y2="1031.66" gradientTransform="matrix(187.6899 0 0 -303.3 -450376.9062 314280.9062)">
		<stop  offset="0" style="stop-color:#3C4870"/>
		<stop  offset="1" style="stop-color:#3C4870"/>
	</linearGradient>
	<path class="st22" d="M4321.6,1186.7c-2.7,16.9-4.4,35.1-7.1,49.4h-1.3c-2.2-13.3-5.8-31.1-9.8-48l-27.6-113l-62.7,0l69.8,206.4
		c2.2,6.7,2.7,11.6,0.4,17.8c-4.4,14.7-16.9,30.2-32,30.2c-4.8,0-9.5-0.4-14.2-1.3l-2.2,47.6c5.8,1.8,13.3,2.7,23.6,2.7
		c24.9,0,46.7-15.6,60.9-39.1c15.1-25.8,26.7-66.7,36.9-104.5l44.5-159.7h-59.1L4321.6,1186.7z"/>
	
		<linearGradient id="SVGID_21_" gradientUnits="userSpaceOnUse" x1="2427.6089" y1="1032.6942" x2="2427.6089" y2="1031.6942" gradientTransform="matrix(308.5703 0 0 -299.8101 -744525.3125 310687.0938)">
		<stop  offset="0" style="stop-color:#3C4870"/>
		<stop  offset="1" style="stop-color:#3C4870"/>
	</linearGradient>
	<path class="st23" d="M4633.8,1212l80.5-137h-65.8l-55.1,129h-4.5v-129H4536v129h-4l-55.2-128.9l-65.8,0l80.5,137
		c-40.9,7.6-55.1,48.9-63.1,85.4c-5.3,25.8-11.1,52.5-20,77.4h56c7.1-18.7,11.6-43.6,16.5-62.7c7.1-28.5,17.4-64.5,50.7-64.5h4.5
		v127.1h52.9v-127.2h5.3c32.9,0,43.1,36,49.8,64.5c4.9,19.1,9.8,44,16.5,62.7h56.5c-8.9-24.9-14.2-51.6-20-77.4
		C4689,1260.9,4674.7,1219.6,4633.8,1212z"/>
	
		<linearGradient id="SVGID_22_" gradientUnits="userSpaceOnUse" x1="2421.5659" y1="1032.6736" x2="2421.5659" y2="1031.6736" gradientTransform="matrix(174.75 0 0 -301.9092 -418337.625 312848.7188)">
		<stop  offset="0" style="stop-color:#3C4870"/>
		<stop  offset="1" style="stop-color:#3C4870"/>
	</linearGradient>
	<path class="st24" d="M4889.9,1207.6c-16.5-14.2-39.1-22.2-64.9-22.2c-7.9-0.1-15.8,0.6-23.6,2.2v-62.7h95.1v-49.8h-152.9v298.8
		c18,2.2,36.1,3.2,54.2,3.1c43.1,0,75.2-10.2,95.6-32c16-16,24.9-39.1,24.9-68C4918.4,1246.8,4907.7,1223.2,4889.9,1207.6z
		 M4846.8,1316.1c-7.1,8.9-18.2,14.2-32,14.2c-4.9,0-8.9,0-12.9-0.9l0-96c4.4-0.9,8.9-1.4,13.4-1.3c12.9,0,23.6,5.8,31.1,14.7
		c7.6,8.4,11.6,20.9,11.6,34.7C4857.9,1294.8,4854.3,1307.2,4846.8,1316.1z"/>
	
		<linearGradient id="SVGID_23_" gradientUnits="userSpaceOnUse" x1="2422.884" y1="1032.6949" x2="2422.884" y2="1031.6949" gradientTransform="matrix(193.0098 0 0 -299.7301 -462612.5312 310604.8438)">
		<stop  offset="0" style="stop-color:#3C4870"/>
		<stop  offset="1" style="stop-color:#3C4870"/>
	</linearGradient>
	<path class="st25" d="M5066,1075.1h-69.8l-64.9,299.7h56.5l13.3-68.5h53.8l12.9,68.5h56.5L5066,1075.1z M5006.9,1261l11.1-62.3
		c3.1-17.3,7.6-48.5,10.7-68.5h1.3c2.7,20,6.7,49.8,9.8,68l9.8,62.7L5006.9,1261z"/>
</g>
</svg>
